<mxfile host="app.diagrams.net" modified="2022-07-21T01:58:46.239Z" agent="5.0 (Windows NT 10.0; Win64; x64) AppleWebKit/537.36 (KHTML, like Gecko) Chrome/103.0.5060.114 Safari/537.36" etag="c0xdOFZtt5dnkiTgstgt" version="20.1.3" type="github">
  <diagram id="FNYH10jm-mw3mcxP2oJX" name="Page-1">
    <mxGraphModel dx="496" dy="281" grid="1" gridSize="10" guides="1" tooltips="1" connect="1" arrows="1" fold="1" page="1" pageScale="1" pageWidth="850" pageHeight="1100" math="0" shadow="0">
      <root>
        <mxCell id="0" />
        <mxCell id="1" parent="0" />
        <mxCell id="TgfOq_zZqyZ3QLLBSmN1-1" value="0" style="swimlane;fontStyle=0;childLayout=stackLayout;horizontal=1;startSize=26;fillColor=none;horizontalStack=0;resizeParent=1;resizeParentMax=0;resizeLast=0;collapsible=1;marginBottom=0;rounded=1;swimlaneLine=1;" vertex="1" parent="1">
          <mxGeometry x="330" y="140" width="140" height="52" as="geometry" />
        </mxCell>
        <mxCell id="TgfOq_zZqyZ3QLLBSmN1-2" value="SIG Pemetaan Lokasi Jemaat" style="text;strokeColor=none;fillColor=none;align=left;verticalAlign=top;spacingLeft=4;spacingRight=4;overflow=hidden;rotatable=0;points=[[0,0.5],[1,0.5]];portConstraint=eastwest;whiteSpace=wrap;" vertex="1" parent="TgfOq_zZqyZ3QLLBSmN1-1">
          <mxGeometry y="26" width="140" height="26" as="geometry" />
        </mxCell>
      </root>
    </mxGraphModel>
  </diagram>
</mxfile>
